<svg width="57" height="53" viewBox="0 0 57 53" fill="none" xmlns="http://www.w3.org/2000/svg">
<g id="Group 12">
<g id="Group 3">
<path id="Rectangle 146" d="M0.727158 22.9205L6.88589 19.4156L10.2132 25.2621L4.05445 28.7671L0.727158 22.9205Z" fill="#80CAE2"/>
<path id="Rectangle 147" d="M11.7718 16.6343L17.9305 13.1294L21.2578 18.9759L15.0991 22.4809L11.7718 16.6343Z" fill="#80CAE2"/>
<path id="Rectangle 148" d="M22.8168 10.3487L28.9755 6.84374L32.3028 12.6903L26.1441 16.1952L22.8168 10.3487Z" fill="#80CAE2"/>
<path id="Rectangle 149" d="M33.8618 4.06287L40.0205 0.557912L43.3478 6.40446L37.1891 9.90941L33.8618 4.06287Z" fill="#80CAE2"/>
</g>
<g id="Group 4">
<path id="Rectangle 146_2" d="M5.1873 30.7591L11.346 27.2541L14.6733 33.1007L8.51459 36.6056L5.1873 30.7591Z" fill="#80CAE2"/>
<path id="Rectangle 147_2" d="M16.2326 24.4731L22.3914 20.9681L25.7187 26.8147L19.5599 30.3196L16.2326 24.4731Z" fill="#80CAE2"/>
<path id="Rectangle 148_2" d="M27.2777 18.1876L33.4364 14.6826L36.7637 20.5292L30.605 24.0341L27.2777 18.1876Z" fill="#80CAE2"/>
<path id="Rectangle 149_2" d="M38.3227 11.9017L44.4814 8.39678L47.8087 14.2433L41.65 17.7483L38.3227 11.9017Z" fill="#80CAE2"/>
</g>
<g id="Group 5">
<path id="Rectangle 146_3" d="M9.64862 38.5981L15.8074 35.0931L19.1346 40.9397L12.9759 44.4446L9.64862 38.5981Z" fill="#80CAE2"/>
<path id="Rectangle 147_3" d="M20.694 32.3124L26.8527 28.8074L30.18 34.654L24.0213 38.1589L20.694 32.3124Z" fill="#80CAE2"/>
<path id="Rectangle 148_3" d="M31.739 26.0266L37.8977 22.5216L41.225 28.3681L35.0663 31.8731L31.739 26.0266Z" fill="#80CAE2"/>
<path id="Rectangle 149_3" d="M42.784 19.7408L48.9427 16.2358L52.27 22.0824L46.1113 25.5873L42.784 19.7408Z" fill="#80CAE2"/>
</g>
<g id="Group 6">
<path id="Rectangle 146_4" d="M14.1099 46.4373L20.2687 42.9323L23.5959 48.7788L17.4372 52.2838L14.1099 46.4373Z" fill="#80CAE2"/>
<path id="Rectangle 147_4" d="M25.1552 40.1514L31.314 36.6465L34.6413 42.493L28.4825 45.998L25.1552 40.1514Z" fill="#80CAE2"/>
<path id="Rectangle 148_4" d="M36.2003 33.8657L42.359 30.3607L45.6863 36.2073L39.5275 39.7122L36.2003 33.8657Z" fill="#80CAE2"/>
<path id="Rectangle 149_4" d="M47.2452 27.5801L53.4039 24.0752L56.7312 29.9217L50.5725 33.4267L47.2452 27.5801Z" fill="#80CAE2"/>
</g>
</g>
</svg>
