<svg width="74" height="74" viewBox="0 0 74 74" fill="none" xmlns="http://www.w3.org/2000/svg">
<g id="Mask Group">
<mask id="mask0_1_822" style="mask-type:alpha" maskUnits="userSpaceOnUse" x="6" y="7" width="62" height="60">
<path id="Union" fill-rule="evenodd" clip-rule="evenodd" d="M19.6642 61.6789C13.8106 58.6122 9.2086 51.2701 7.56289 43.307C7.44614 42.7421 7.84922 42.2083 8.42264 42.1457L33.2882 39.432C34.1281 39.3403 34.6961 40.267 34.2333 40.9739L20.9008 61.3379C20.6311 61.7498 20.1003 61.9075 19.6642 61.6789ZM7.96598 39.4609L32.8542 36.9022C33.7366 36.8115 34.0728 35.702 33.3891 35.1367L14.5726 19.5798C14.2098 19.2799 13.6852 19.2706 13.3377 19.5881C10.3616 22.3067 5.78919 29.0675 6.89199 38.6137C6.95319 39.1435 7.43541 39.5155 7.96598 39.4609ZM16.945 16.9237L34.8539 33.8147C35.5007 34.4247 36.5624 33.9505 36.5397 33.0617L35.9136 8.56517C35.9009 8.06858 35.5257 7.65339 35.03 7.62091C27.0916 7.10066 18.3856 12.2171 16.7116 15.9606C16.5622 16.2948 16.6786 16.6725 16.945 16.9237ZM37.9508 33.5993L39.1314 9.31984C39.1572 8.78879 39.5913 8.3708 40.1205 8.4222C43.8156 8.78106 51.5784 11.0949 57.0674 15.6158C57.5105 15.9807 57.5246 16.6455 57.117 17.0495L39.6535 34.3581C39.0056 35.0003 37.9065 34.5106 37.9508 33.5993ZM65.3948 42.8143L40.7512 39.6724C39.8965 39.5634 39.3133 40.5143 39.7979 41.2268L53.5897 61.5051C53.9012 61.963 54.5265 62.0827 54.9665 61.7464C60.1963 57.7482 64.0513 50.7412 66.2131 44.0872C66.4038 43.5003 66.007 42.8924 65.3948 42.8143ZM67.4547 37.5715C67.2595 28.5075 63.1141 21.574 60.4967 18.5627C60.1401 18.1526 59.5205 18.1495 59.1281 18.5255L40.5703 36.3016C39.9269 36.9179 40.35 38.0046 41.2408 38.0235L66.45 38.5605C67.0061 38.5723 67.4667 38.1276 67.4547 37.5715ZM23.6292 61.5484L35.7315 42.4926C36.1243 41.874 37.027 41.8741 37.4198 42.4926L50.4095 62.947C50.6884 63.3861 50.5868 63.9672 50.1381 64.2304C45.6242 66.8774 33.7623 68.9448 23.9284 62.9002C23.466 62.6159 23.3382 62.0066 23.6292 61.5484Z" fill="#FF8A35"/>
</mask>
<g mask="url(#mask0_1_822)">
<g id="Group 2">
<path id="Vector 8" d="M45.4686 61.3492C42.3019 63.44 40.0092 61.2591 34.067 61.2984C22.1824 61.3771 16.0338 55.1731 14.1175 50.5971C8.63156 41.7143 12.7194 39.5837 11.8389 30.5021C10.7853 19.6352 24.0469 13.5999 29.5005 13.3464C32.8612 13.6537 40.452 14.0354 43.9293 13.1037C48.276 11.939 59.1092 21.4595 62.0163 28.4452C64.9233 35.4308 61.6071 49.7226 58.2752 51.1884C52.2555 53.8366 49.4271 58.7356 45.4686 61.3492Z" stroke="#FAB228" stroke-opacity="0.5" stroke-width="0.5"/>
<path id="Vector 9" d="M57.76 27.4296C59.8233 30.3054 59.0227 37.3295 58.8233 39.8329C60.0075 48.06 53.0781 52.8094 48.8854 54.7611C40.8111 60.1958 41.1878 57.9325 32.7602 59.0819C22.6757 60.4573 15.6739 49.6006 15.2386 44.5269C15.4022 41.3835 15.3548 34.3312 14.4856 31.0876C11.8368 21.202 21.9533 14.5887 28.8922 15.517C35.8834 16.4523 46.4783 13.2545 47.9654 16.3068C50.6521 21.8215 55.1808 23.8349 57.76 27.4296Z" stroke="#FAB228" stroke-opacity="0.5" stroke-width="0.5"/>
<path id="Vector 10" d="M23.6831 18.9635C25.8939 16.984 35.037 17.0706 37.1504 17.2069C43.9213 15.9407 49.0126 20.3276 51.042 24.1957C56.3526 31.6118 57.5891 31.2084 56.9842 39.2107C55.9295 53.1637 44.4877 55.4449 40.2841 55.9509C37.6387 55.8607 37.1215 55.8436 34.4901 56.7177C26.4701 59.3814 17.9805 48.3083 18.1008 41.8243C18.222 35.2915 16.1673 26.7861 17.2819 24.2032C19.0016 20.2179 20.9196 21.4379 23.6831 18.9635Z" stroke="#FAB228" stroke-opacity="0.5" stroke-width="0.5"/>
<path id="Vector 11" d="M23.4466 49.9705C21.3618 48.3164 20.0528 40.2215 19.853 38.3328C17.7077 32.5398 19.5457 31.543 18.9192 26.0168C19.7417 20.1024 28.7079 23.9116 33.244 19.5903C38.8755 15.4932 47.7075 21.4088 53.6245 29.6914C53.9456 32.0433 53.4804 35.4719 54.6517 37.6654C58.2217 44.3507 49.8547 51.5207 44.1052 52.397C38.3123 53.28 37.2527 56.8213 29.0482 54.8346C25.2649 53.9185 26.0526 52.0383 23.4466 49.9705Z" stroke="#FAB228" stroke-opacity="0.5" stroke-width="0.5"/>
<path id="Vector 12" d="M50.7974 46.4628C49.7275 48.3741 43.5176 49.9599 42.0094 50.3705C37.5847 52.875 35.05 51.1456 30.6424 52.381C25.729 52.4902 28.6412 48.776 23.6128 45.4647C20.1974 44.3093 19.7212 23.2137 24.02 23.802C25.8887 23.2319 33.4437 22.0807 35.0719 20.8407C40.0344 17.0614 46.9596 22.9168 48.4274 27.473C49.9063 32.0635 52.9228 32.4589 52.3872 39.3861C52.1401 42.5804 52.1348 44.0737 50.7974 46.4628Z" stroke="#FAB228" stroke-opacity="0.5" stroke-width="0.5"/>
<path id="Vector 13" d="M23.4337 26.9023C24.4224 25.2996 28.1302 25.6192 31.1247 23.8657C35.0166 21.8755 37.1309 23.4533 40.9618 22.5526C45.1863 22.6377 42.5496 25.722 46.7482 28.7494C55.2987 40.0802 49.2809 48.0041 45.6098 47.3422C43.9839 47.7639 37.4524 48.4777 36.0086 49.4836C31.6085 52.5492 25.873 47.2674 24.7781 43.3003C23.675 39.3034 21.5969 38.8037 22.3093 32.8729C22.6377 30.1381 22.1979 28.9058 23.4337 26.9023Z" stroke="#FAB228" stroke-opacity="0.5" stroke-width="0.5"/>
<path id="Vector 14" d="M23.4337 26.9023C24.4224 25.2996 28.1302 25.6192 31.1247 23.8657C35.0166 21.8755 37.1309 23.4533 40.9618 22.5526C45.1863 22.6377 42.5496 25.722 46.7482 28.7494C55.2987 40.0802 49.2809 48.0041 45.6098 47.3422C43.9839 47.7639 37.4524 48.4777 36.0086 49.4836C31.6085 52.5492 25.873 47.2674 24.7781 43.3003C23.675 39.3034 21.5969 38.8037 22.3093 32.8729C22.6377 30.1381 22.1979 28.9058 23.4337 26.9023Z" stroke="#FAB228" stroke-opacity="0.5" stroke-width="0.5"/>
<path id="Vector 15" d="M45.7482 44.1372C44.9531 45.3692 42.0718 45.0613 39.7128 46.3787C36.6515 47.8661 35.0307 46.6041 32.0342 47.2443C28.747 47.1108 30.8486 44.7518 27.6283 42.3283C21.1525 33.3717 25.9633 27.2991 28.8105 27.8727C30.0829 27.5704 35.1787 27.1187 36.3186 26.3586C39.7927 24.0422 44.1735 28.2451 44.9627 31.3507C45.7578 34.4797 47.3675 34.9018 46.7186 39.5073C46.4194 41.631 46.7421 42.5973 45.7482 44.1372Z" stroke="#FAB228" stroke-opacity="0.5" stroke-width="0.5"/>
</g>
</g>
</g>
</svg>
