<svg width="61" height="61" viewBox="0 0 61 61" fill="none" xmlns="http://www.w3.org/2000/svg">
  <mask id="mask0_1_795" style="mask-type:alpha" maskUnits="userSpaceOnUse" x="0" y="0" width="61" height="61">
    <path fill-rule="evenodd" clip-rule="evenodd" d="M10.8602 6.98953C15.3375 2.12909 23.6204 -0.415788 31.7382 0.0555887C32.314 0.0890273 32.7253 0.616532 32.6374 1.18661L28.8229 25.9073C28.6941 26.7423 27.652 27.0511 27.089 26.4211L10.8696 8.2723C10.5415 7.90516 10.5266 7.35169 10.8602 6.98953ZM35.3489 1.44039L31.3788 26.1428C31.2381 27.0186 32.2227 27.6305 32.9457 27.1164L52.8426 12.9675C53.2263 12.6947 53.371 12.1904 53.1542 11.7725C51.2985 8.1942 45.9516 2.02779 36.4452 0.622271C35.9176 0.544261 35.4335 0.913781 35.3489 1.44039ZM54.7942 15.9465L33.8436 28.8734C33.0869 29.3403 33.2702 30.4886 34.1347 30.6967L57.9585 36.4321C58.4414 36.5483 58.9396 36.2934 59.0993 35.823C61.6564 28.2898 58.9676 18.5562 55.7849 15.9704C55.5007 15.7395 55.1058 15.7542 54.7942 15.9465ZM33.2501 31.9206L56.3967 39.3449C56.903 39.5073 57.1944 40.0348 57.0078 40.5327C55.7048 44.009 51.4606 50.9084 45.673 55.0403C45.2059 55.3738 44.5602 55.2154 44.2754 54.7171L32.0765 33.3689C31.6238 32.5768 32.3814 31.6419 33.2501 31.9206ZM17.246 56.0445L26.6591 33.0537C26.9856 32.2564 26.2181 31.4469 25.4045 31.7306L2.24756 39.8041C1.72465 39.9864 1.44712 40.5595 1.65813 41.0715C4.16654 47.1579 9.93697 52.6951 15.8047 56.5054C16.3222 56.8415 17.0122 56.6155 17.246 56.0445ZM21.7771 59.3911C30.5827 61.5485 38.3529 59.3388 41.939 57.59C42.4275 57.3518 42.5908 56.7541 42.3292 56.2777L29.9619 33.7515C29.5331 32.9704 28.374 33.0979 28.1251 33.9534L21.0818 58.1646C20.9265 58.6987 21.2368 59.2587 21.7771 59.3911ZM9.96004 10.8532L25.2343 27.4752C25.73 28.0147 25.4964 28.8866 24.7973 29.1059L1.67787 36.3591C1.18153 36.5148 0.646465 36.2663 0.508429 35.7647C-0.880132 30.7195 0.193071 18.7267 8.5769 10.7924C8.97114 10.4193 9.59276 10.4535 9.96004 10.8532Z" fill="#FF8A35"/>
  </mask>
  <g mask="url(#mask0_1_795)">
    <path d="M4.49997 32C3.29997 28.4 5.99999 26.75 7.49996 21C10.4999 9.5 18.0839 5.16667 22.9999 4.5C33 1.5 33.9999 5.99998 42.9999 7.49998C53.7693 9.29487 56.1666 23.6666 54.9999 29C53.8333 32.1666 51.4999 39.4 51.4999 43C51.4999 47.5 39.4999 55.5 31.9999 56.5C24.4999 57.5 11.5534 50.5977 10.9999 47C9.99994 40.5 5.99997 36.5 4.49997 32Z" stroke="#FF6331" stroke-opacity="0.5" stroke-width="0.5"/>
    <path d="M34.0825 52.6516C30.7706 53.9003 24.1931 51.309 21.8266 50.4684C13.5734 49.483 10.7793 41.5605 9.97918 37.0055C6.81947 27.7997 8.90821 28.7494 9.97918 20.3114C11.2607 10.2145 23.5596 6.26121 28.5731 7.15397C31.5671 8.12553 38.3913 9.90498 41.7494 9.90499C51.9837 9.90499 55.7533 21.3884 53.0607 27.8506C50.3478 34.3615 50.6945 45.4231 47.3613 46.0695C41.3392 47.2374 38.2223 51.0907 34.0825 52.6516Z" stroke="#FF6331" stroke-opacity="0.5" stroke-width="0.5"/>
    <path d="M51.08 21.9269C52.4199 24.5747 49.9697 33.3839 49.2911 35.3899C48.7618 42.2579 43.2066 46.0402 38.945 46.9994C30.4072 50.2096 30.4769 51.5083 22.9037 48.8529C9.69917 44.2228 10.457 32.5805 11.0563 28.3892C11.8281 25.8573 11.9784 25.3622 11.8152 22.5941C11.3179 14.158 24.211 8.82366 30.4429 10.618C36.7218 12.4259 45.4691 12.6426 47.6756 14.3877C51.08 17.0803 49.4052 18.6172 51.08 21.9269Z" stroke="#FF6331" stroke-opacity="0.5" stroke-width="0.5"/>
    <path d="M21.1905 13.6734C23.3279 12.0878 31.4857 12.9185 33.3618 13.2143C39.5127 12.6414 39.9998 14.6748 45.4998 15.5C50.9998 17.8252 44.9998 25.5 47.9998 31C50.4998 37.5 42.4998 44.5 32.9681 48.0716C30.6131 47.7731 27.4219 46.4363 24.9999 47C17.6184 48.718 12.8583 38.7804 13.4999 33C14.1463 27.176 10.9999 25.236 15.0424 17.8252C16.9065 14.4079 18.5188 15.6554 21.1905 13.6734Z" stroke="#FF6331" stroke-opacity="0.5" stroke-width="0.5"/>
    <path d="M17.4998 41C15.9306 39.4718 16.0061 33.0631 15.9998 31.5C14.7258 26.5779 17.0524 24.5771 16.9998 20C18.166 15.2257 20.9998 19 25.4998 15C27.4998 12 47.9998 17 46.319 21C46.386 22.9526 45.5426 30.5481 46.319 32.4418C48.6851 38.2133 41.2368 43.3871 36.4559 43.6257C31.6391 43.866 30.4764 46.6775 23.9239 44.3671C20.9024 43.3018 19.4614 42.9102 17.4998 41Z" stroke="#FF6331" stroke-opacity="0.5" stroke-width="0.5"/>
    <path d="M43.476 19.6315C44.7683 21.0013 43.4998 24.5 44.4186 27.8463C45.3337 32.1207 43.2624 33.7546 43.1409 37.6881C41.9653 41.7466 39.6686 38.4015 35.6576 41.6735C22.4999 47 16.4035 39.1364 17.993 35.7617C18.0065 34.0821 19.0075 27.5884 18.4095 25.9335C16.5872 20.8898 23.1735 16.7168 27.2888 16.686C31.4351 16.6549 32.4555 14.777 37.9999 17C40.5565 18.0251 41.8606 17.9193 43.476 19.6315Z" stroke="#FF6331" stroke-opacity="0.5" stroke-width="0.5"/>
    <path d="M43.476 19.6315C44.7683 21.0013 43.4998 24.5 44.4186 27.8463C45.3337 32.1207 43.2624 33.7546 43.1409 37.6881C41.9653 41.7466 39.6686 38.4015 35.6576 41.6735C22.4999 47 16.4035 39.1364 17.993 35.7617C18.0065 34.0821 19.0075 27.5884 18.4095 25.9335C16.5872 20.8898 23.1735 16.7168 27.2888 16.686C31.4351 16.6549 32.4555 14.777 37.9999 17C40.5565 18.0251 41.8606 17.9193 43.476 19.6315Z" stroke="#FF6331" stroke-opacity="0.5" stroke-width="0.5"/>
    <path d="M21.0529 36.7249C20.0688 35.638 21.1119 32.9346 20.4499 30.315C19.8056 26.973 21.444 25.7341 21.6012 22.6739C22.5809 19.5333 24.3156 22.1739 27.49 19.6906C37.8175 15.7536 42.438 21.9721 41.147 24.5738C41.1098 25.8811 40.2272 30.9202 40.6663 32.218C42.0046 36.1733 36.8111 39.3169 33.607 39.2755C30.3789 39.2336 29.5546 40.6793 25.274 38.8605C23.3001 38.0218 22.2832 38.0835 21.0529 36.7249Z" stroke="#FF6331" stroke-opacity="0.5" stroke-width="0.5"/>
  </g>
</svg>

