<svg width="62" height="60" viewBox="0 0 62 60" fill="none" xmlns="http://www.w3.org/2000/svg">
<path id="Union" fill-rule="evenodd" clip-rule="evenodd" d="M13.6642 54.6789C7.81055 51.6122 3.2086 44.2701 1.56289 36.307C1.44614 35.7421 1.84922 35.2083 2.42264 35.1457L27.2882 32.432C28.1281 32.3403 28.6961 33.267 28.2333 33.9739L14.9008 54.3379C14.6311 54.7498 14.1003 54.9075 13.6642 54.6789ZM1.96598 32.4609L26.8542 29.9022C27.7366 29.8115 28.0728 28.702 27.3891 28.1367L8.57256 12.5798C8.20977 12.2799 7.6852 12.2706 7.33765 12.5881C4.36159 15.3067 -0.210814 22.0675 0.891986 31.6137C0.953194 32.1435 1.43541 32.5155 1.96598 32.4609ZM10.945 9.92373L28.8539 26.8147C29.5007 27.4247 30.5624 26.9505 30.5397 26.0617L29.9136 1.56517C29.9009 1.06858 29.5257 0.653392 29.03 0.620912C21.0916 0.100658 12.3856 5.21708 10.7116 8.96058C10.5622 9.29483 10.6786 9.67251 10.945 9.92373ZM31.9508 26.5993L33.1314 2.31984C33.1572 1.78879 33.5913 1.3708 34.1205 1.4222C37.8156 1.78106 45.5784 4.09494 51.0674 8.61583C51.5105 8.98072 51.5246 9.64549 51.117 10.0495L33.6535 27.3581C33.0056 28.0003 31.9065 27.5106 31.9508 26.5993ZM59.3948 35.8143L34.7512 32.6724C33.8965 32.5634 33.3133 33.5143 33.7979 34.2268L47.5897 54.5051C47.9012 54.963 48.5265 55.0827 48.9665 54.7464C54.1963 50.7482 58.0513 43.7412 60.2131 37.0872C60.4038 36.5003 60.007 35.8924 59.3948 35.8143ZM61.4547 30.5715C61.2595 21.5075 57.1141 14.574 54.4967 11.5627C54.1401 11.1526 53.5205 11.1495 53.1281 11.5255L34.5703 29.3016C33.9269 29.9179 34.35 31.0046 35.2408 31.0235L60.45 31.5605C61.0061 31.5723 61.4667 31.1276 61.4547 30.5715ZM17.6292 54.5484L29.7315 35.4926C30.1243 34.874 31.027 34.8741 31.4198 35.4926L44.4095 55.947C44.6884 56.3861 44.5868 56.9672 44.1381 57.2304C39.6242 59.8774 27.7623 61.9448 17.9284 55.9002C17.466 55.6159 17.3382 55.0066 17.6292 54.5484Z" fill="url(#paint0_radial_1_815)"/>
<defs>
<radialGradient id="paint0_radial_1_815" cx="0" cy="0" r="1" gradientUnits="userSpaceOnUse" gradientTransform="translate(31.0589 30.1421) rotate(-15) scale(30.1421 30.0589)">
<stop stop-color="#FFA73F"/>
<stop offset="1" stop-color="#FFD335"/>
</radialGradient>
</defs>
</svg>
